<?xml version="1.0" encoding="UTF-8"?>
<svg xmlns="http://www.w3.org/2000/svg" xmlns:xlink="http://www.w3.org/1999/xlink" viewBox="0 0 50 50" width="50px" height="50px">
<g id="surface228674558">
<path style=" stroke:none;fill-rule:nonzero;fill:rgb(0%,0%,0%);fill-opacity:1;" d="M 25 8 C 15.609375 8 8 15.609375 8 25 C 8 34.390625 15.609375 42 25 42 C 34.390625 42 42 34.390625 42 25 C 42 15.609375 34.390625 8 25 8 Z M 25 9 C 33.835938 9 41 16.164062 41 25 C 41 33.835938 33.835938 41 25 41 C 16.164062 41 9 33.835938 9 25 C 9 16.164062 16.164062 9 25 9 Z M 31.988281 18.308594 C 31.59375 18.261719 31.101562 18.367188 30.550781 18.566406 C 29.542969 18.929688 16.671875 24.394531 15.929688 24.710938 C 15.226562 25.011719 14.558594 25.335938 14.558594 25.808594 C 14.558594 26.140625 14.753906 26.328125 15.300781 26.523438 C 15.863281 26.726562 17.289062 27.160156 18.132812 27.390625 C 18.945312 27.613281 19.867188 27.417969 20.382812 27.097656 C 20.933594 26.757812 27.261719 22.519531 27.714844 22.152344 C 28.171875 21.78125 28.53125 22.257812 28.160156 22.628906 C 27.789062 23 23.445312 27.214844 22.871094 27.800781 C 22.175781 28.507812 22.667969 29.242188 23.136719 29.539062 C 23.667969 29.875 27.503906 32.441406 28.078125 32.855469 C 28.65625 33.265625 29.242188 33.457031 29.777344 33.457031 C 30.316406 33.457031 30.597656 32.75 30.863281 31.929688 C 31.175781 30.96875 32.640625 21.40625 32.820312 19.523438 C 32.875 18.953125 32.695312 18.574219 32.34375 18.402344 C 32.238281 18.351562 32.117188 18.320312 31.984375 18.304688 Z M 31.988281 18.308594 "/>
</g>
</svg>
